<svg width="293" height="64" viewBox="0 0 293 64" fill="none" xmlns="http://www.w3.org/2000/svg">
<path d="M5.10216e-05 48.512V2.432H8.44805V21.184H38.6561V2.432H47.1041V48.512H38.6561V29.76H8.44805V48.512H5.10216e-05ZM62.9496 48.512C61.3282 48.512 59.8349 48.1067 58.4696 47.296C57.1469 46.4853 56.0802 45.4187 55.2696 44.096C54.5016 42.7733 54.1176 41.3013 54.1176 39.68V25.728H83.4296V20.544C83.4296 20.3307 83.3442 20.16 83.1736 20.032C83.0456 19.8613 82.8749 19.776 82.6616 19.776H54.1176V11.392H82.9816C84.6029 11.392 86.0749 11.7973 87.3976 12.608C88.7629 13.4187 89.8296 14.4853 90.5976 15.808C91.4082 17.1307 91.8136 18.6027 91.8136 20.224V48.512H62.9496ZM63.2696 40.128H83.4296V33.28H62.5016V39.36C62.5016 39.5733 62.5656 39.7653 62.6936 39.936C62.8642 40.064 63.0562 40.128 63.2696 40.128ZM97.9956 48.512V11.392H126.86C128.481 11.392 129.953 11.7973 131.276 12.608C132.641 13.4187 133.708 14.4853 134.476 15.808C135.286 17.1307 135.692 18.6027 135.692 20.224V48.512H127.308V20.544C127.308 20.3307 127.222 20.16 127.052 20.032C126.924 19.8613 126.753 19.776 126.54 19.776H107.148C106.934 19.776 106.742 19.8613 106.572 20.032C106.444 20.16 106.38 20.3307 106.38 20.544V48.512H97.9956ZM147.497 63.168V54.72H169.833C170.046 54.72 170.217 54.6347 170.345 54.464C170.515 54.336 170.601 54.1653 170.601 53.952V48.512H150.121C148.542 48.512 147.07 48.1067 145.705 47.296C144.382 46.4853 143.315 45.4187 142.505 44.096C141.694 42.7733 141.289 41.3013 141.289 39.68V20.224C141.289 18.6027 141.694 17.1307 142.505 15.808C143.315 14.4853 144.382 13.4187 145.705 12.608C147.07 11.7973 148.542 11.392 150.121 11.392H170.217C171.838 11.392 173.31 11.7973 174.633 12.608C175.955 13.4187 177.001 14.4853 177.769 15.808C178.579 17.1307 178.985 18.6027 178.985 20.224V54.336C178.985 56 178.601 57.4933 177.833 58.816C177.065 60.1387 175.998 61.184 174.633 61.952C173.31 62.7627 171.838 63.168 170.217 63.168H147.497ZM150.441 40.128H169.833C170.046 40.128 170.217 40.064 170.345 39.936C170.515 39.7653 170.601 39.5733 170.601 39.36V20.544C170.601 20.3307 170.515 20.16 170.345 20.032C170.217 19.8613 170.046 19.776 169.833 19.776H150.441C150.227 19.776 150.035 19.8613 149.865 20.032C149.737 20.16 149.673 20.3307 149.673 20.544V39.36C149.673 39.5733 149.737 39.7653 149.865 39.936C150.035 40.064 150.227 40.128 150.441 40.128ZM193.073 48.512C191.452 48.512 189.98 48.1067 188.657 47.296C187.334 46.4853 186.268 45.4187 185.457 44.096C184.646 42.7733 184.241 41.3013 184.241 39.68V20.224C184.241 18.6027 184.646 17.1307 185.457 15.808C186.268 14.4853 187.334 13.4187 188.657 12.608C189.98 11.7973 191.452 11.392 193.073 11.392H213.105C214.726 11.392 216.198 11.7973 217.521 12.608C218.886 13.4187 219.953 14.4853 220.721 15.808C221.532 17.1307 221.937 18.6027 221.937 20.224V39.68C221.937 41.3013 221.532 42.7733 220.721 44.096C219.953 45.4187 218.908 46.4853 217.585 47.296C216.262 48.1067 214.769 48.512 213.105 48.512H193.073ZM193.393 40.128H212.785C212.998 40.128 213.169 40.064 213.297 39.936C213.468 39.7653 213.553 39.5733 213.553 39.36V20.544C213.553 20.3307 213.468 20.16 213.297 20.032C213.169 19.8613 212.998 19.776 212.785 19.776H193.393C193.18 19.776 192.988 19.8613 192.817 20.032C192.689 20.16 192.625 20.3307 192.625 20.544V39.36C192.625 39.5733 192.689 39.7653 192.817 39.936C192.988 40.064 193.18 40.128 193.393 40.128ZM235.826 48.512C234.205 48.512 232.711 48.1067 231.346 47.296C230.023 46.4853 228.957 45.4187 228.146 44.096C227.378 42.7733 226.994 41.3013 226.994 39.68V11.392H235.378V39.36C235.378 39.5733 235.442 39.7653 235.57 39.936C235.741 40.064 235.933 40.128 236.146 40.128H255.538C255.751 40.128 255.922 40.064 256.05 39.936C256.221 39.7653 256.306 39.5733 256.306 39.36V11.392H264.69V39.68C264.69 41.3013 264.285 42.7733 263.474 44.096C262.706 45.4187 261.661 46.4853 260.338 47.296C259.015 48.1067 257.522 48.512 255.858 48.512H235.826ZM278.951 48.512C277.33 48.512 275.858 48.1067 274.535 47.296C273.212 46.4853 272.146 45.4187 271.335 44.096C270.524 42.7733 270.119 41.3013 270.119 39.68V0H278.503V11.392H292.967V19.776H278.503V39.36C278.503 39.5733 278.567 39.7653 278.695 39.936C278.866 40.064 279.058 40.128 279.271 40.128H292.967V48.512H278.951Z" fill="white"/>
</svg>
